<?xml version="1.0" standalone="no"?>
<!DOCTYPE svg PUBLIC "-//W3C//DTD SVG 20010904//EN"
 "http://www.w3.org/TR/2001/REC-SVG-20010904/DTD/svg10.dtd">
<svg version="1.0" xmlns="http://www.w3.org/2000/svg"
 width="1174.000000pt" height="1185.000000pt" viewBox="0 0 1174.000000 1185.000000"
 preserveAspectRatio="xMidYMid meet">

<g transform="translate(0.000000,1185.000000) scale(0.100000,-0.100000)"
fill="#000000" stroke="none">
<path d="M0 5925 l0 -5925 5870 0 5870 0 0 5925 0 5925 -5870 0 -5870 0 0
-5925z m7791 4949 c471 -79 828 -440 910 -918 19 -112 6 -331 -26 -446 -97
-349 -344 -619 -683 -746 -198 -75 -430 -88 -634 -36 -408 105 -708 406 -809
812 -33 132 -33 372 -1 501 83 333 294 594 597 739 209 100 424 131 646 94z
m-2001 -1574 c288 -38 562 -198 739 -435 67 -89 143 -244 177 -360 25 -82 27
-106 28 -270 1 -99 -1 -200 -4 -225 l-5 -44 70 -19 c406 -107 827 -294 1175
-522 339 -223 675 -544 897 -856 185 -262 334 -568 422 -871 17 -58 31 -115
31 -126 0 -45 18 -28 35 30 29 105 112 208 192 239 49 20 153 15 199 -8 117
-61 167 -180 129 -309 -17 -59 -79 -157 -129 -203 -34 -32 -33 -41 7 -41 116
2 233 116 282 275 52 169 -6 367 -142 484 -41 35 -44 40 -32 60 8 11 18 21 23
21 20 0 120 -87 172 -149 117 -140 162 -293 131 -444 -35 -169 -149 -328 -282
-393 -55 -27 -69 -29 -170 -29 -100 0 -115 2 -167 28 l-58 28 -58 -23 -59 -23
-6 -210 c-6 -224 -20 -339 -63 -531 -165 -741 -667 -1427 -1385 -1896 l-86
-56 5 -520 c4 -475 3 -526 -13 -576 -23 -72 -72 -128 -143 -163 l-57 -28 -670
0 c-668 0 -670 0 -710 22 -51 27 -119 99 -135 144 -8 22 -29 45 -57 64 -93 63
-123 147 -123 351 l0 110 -270 0 -270 -1 -1 -90 c0 -49 0 -109 1 -132 3 -79
-25 -149 -84 -206 -29 -29 -58 -56 -65 -62 -6 -5 -24 -35 -40 -65 -57 -110
-145 -150 -331 -150 -63 -1 -347 -3 -630 -7 l-515 -5 -65 29 c-75 35 -120 79
-149 143 -23 53 -29 210 -30 787 l-1 342 -32 17 c-103 53 -340 225 -496 361
-158 137 -351 346 -477 517 -65 88 -185 275 -185 287 0 5 -15 32 -34 61 -18
29 -51 92 -74 140 l-41 88 -58 0 c-198 0 -374 10 -418 23 -177 51 -342 206
-393 369 -41 133 -42 144 -42 682 0 489 1 531 19 596 58 209 209 364 416 426
59 17 157 24 361 24 l101 0 76 153 c42 83 100 188 129 232 28 44 66 103 84
132 75 122 218 289 411 481 200 198 206 205 248 295 56 120 89 230 122 402 25
129 27 162 29 432 2 291 6 363 24 363 6 0 10 7 10 15 0 8 21 29 48 47 41 29
55 33 107 32 94 -2 356 -91 532 -181 194 -99 420 -280 519 -415 29 -40 40 -47
58 -42 11 3 24 9 28 13 4 3 0 51 -9 106 -25 166 -5 359 55 521 179 482 667
779 1172 714z"/>
<path d="M7444 10820 c-190 -34 -394 -135 -529 -262 -196 -183 -312 -416 -334
-673 -43 -512 282 -969 785 -1102 85 -22 120 -25 249 -25 129 0 164 3 246 25
224 59 410 177 565 357 70 82 152 241 191 371 27 89 28 104 27 284 0 178 -2
196 -28 280 -93 306 -301 544 -581 667 -137 61 -229 80 -390 84 -82 1 -173 -1
-201 -6z m399 -119 c210 -55 402 -185 533 -364 60 -81 94 -150 135 -272 32
-97 33 -105 34 -270 0 -160 -2 -175 -29 -260 -52 -163 -114 -270 -225 -387
-230 -244 -582 -347 -901 -263 -114 30 -247 92 -326 150 -170 128 -286 296
-351 511 -25 81 -28 104 -28 244 0 139 3 164 27 245 47 158 98 255 195 366
147 170 352 285 568 319 90 14 278 4 368 -19z"/>
<path d="M7480 10659 c-342 -60 -620 -311 -712 -644 -32 -116 -32 -325 0 -444
40 -146 116 -278 226 -390 245 -252 611 -330 945 -201 244 94 448 322 523 585
19 68 23 102 22 230 -1 133 -4 160 -27 238 -88 290 -295 500 -581 593 -93 30
-126 36 -225 39 -64 2 -141 0 -171 -6z m251 -86 c1 -41 9 -126 13 -130 1 -1
45 -11 99 -23 97 -21 162 -43 170 -57 4 -8 -56 -259 -64 -267 -2 -3 -48 11
-103 30 -122 43 -236 48 -292 13 -41 -25 -46 -65 -11 -96 24 -23 139 -83 158
-83 7 0 44 -14 83 -32 146 -67 218 -127 260 -217 17 -37 21 -65 21 -146 0 -93
-2 -105 -33 -167 -49 -100 -145 -177 -260 -207 l-42 -12 0 -99 0 -100 -125 0
-125 0 0 88 0 88 -89 17 c-99 18 -190 49 -220 75 -22 19 -22 22 34 228 l17 62
71 -33 c86 -39 240 -70 298 -61 44 7 99 32 111 50 17 25 8 73 -19 98 -29 27
-123 78 -145 78 -31 1 -180 71 -232 109 -223 165 -181 478 79 602 33 16 68 29
78 29 15 0 17 11 17 93 0 52 3 97 7 100 3 4 60 7 125 7 l118 0 1 -37z"/>
<path d="M7550 10466 c0 -94 -1 -96 -75 -115 -98 -24 -184 -92 -224 -174 -28
-57 -31 -175 -6 -233 32 -79 127 -150 264 -200 36 -14 75 -29 86 -33 90 -40
118 -57 145 -87 25 -29 30 -43 30 -89 0 -89 -53 -135 -171 -150 -71 -9 -197
10 -273 41 -33 13 -61 23 -62 21 -11 -11 -40 -154 -33 -163 14 -17 115 -43
221 -57 68 -9 93 -17 94 -27 1 -8 2 -48 2 -87 l2 -73 60 0 60 0 0 95 0 95 28
6 c203 43 312 163 312 342 0 68 -36 147 -87 193 -45 40 -157 109 -177 109 -21
0 -148 54 -199 84 -62 36 -87 70 -87 118 0 93 66 138 201 138 48 0 111 -7 144
-16 101 -28 106 -27 122 31 23 89 20 99 -36 114 -27 7 -86 18 -132 24 l-84 12
-3 83 -3 82 -59 0 -60 0 0 -84z"/>
<path d="M5485 9240 c-276 -43 -534 -208 -698 -447 -149 -216 -211 -522 -158
-772 21 -97 56 -202 86 -261 14 -28 20 -29 92 -14 21 4 21 5 -18 96 -106 248
-102 525 10 761 122 256 333 435 603 511 470 134 974 -136 1134 -607 71 -208
53 -512 -41 -697 -14 -27 -21 -51 -17 -53 4 -3 26 -8 50 -12 l42 -7 26 58
c163 368 102 792 -157 1088 -154 175 -338 288 -559 341 -79 19 -312 28 -395
15z"/>
<path d="M5553 9078 c-249 -20 -492 -168 -637 -387 -52 -79 -85 -154 -117
-266 -33 -116 -33 -306 0 -425 25 -89 81 -223 98 -233 10 -6 304 21 311 28 2
2 12 36 22 75 10 39 21 74 24 77 3 3 45 -11 94 -31 138 -55 300 -66 365 -23
14 9 28 31 32 48 13 58 -39 100 -185 150 -140 47 -256 119 -303 186 -52 76
-58 104 -56 257 0 34 39 118 75 162 43 52 112 98 185 123 l54 18 3 96 3 97
119 0 120 0 0 -80 c0 -90 2 -93 85 -103 60 -7 175 -44 193 -61 11 -11 8 -34
-18 -137 -18 -68 -35 -127 -39 -131 -4 -5 -43 6 -86 24 -72 28 -91 32 -187 32
-99 1 -108 -1 -132 -23 -61 -57 -12 -108 170 -177 233 -88 320 -170 354 -337
10 -49 9 -68 -8 -135 -11 -42 -23 -84 -26 -93 -6 -13 13 -17 136 -27 224 -19
199 -27 246 81 86 197 97 425 29 627 -81 245 -275 446 -518 539 -120 46 -250
62 -406 49z"/>
<path d="M5580 8881 l0 -89 -32 -7 c-61 -13 -156 -63 -201 -104 -122 -113
-122 -304 2 -412 47 -41 154 -96 249 -127 86 -29 135 -56 170 -96 62 -71 48
-154 -38 -211 l-45 -30 130 -5 c72 -3 140 -3 153 -1 53 8 88 161 62 270 -9 38
-25 66 -60 104 -56 61 -113 95 -249 146 -180 68 -237 117 -227 194 6 52 30 85
79 108 57 26 170 25 276 -2 46 -12 86 -17 91 -12 8 9 41 136 36 140 -14 14
-126 42 -188 48 l-77 7 -3 82 -3 81 -62 3 -63 3 0 -90z"/>
<path d="M3379 8516 c-15 -7 -37 -24 -50 -37 l-24 -24 -1 -290 c0 -222 -4
-317 -18 -405 -20 -137 -66 -313 -108 -419 -62 -154 -79 -178 -229 -321 -326
-309 -529 -582 -699 -942 l-64 -136 -231 -4 c-208 -3 -236 -6 -290 -26 -124
-46 -239 -146 -294 -256 -61 -121 -62 -131 -61 -691 0 -518 5 -595 39 -686 40
-105 134 -215 231 -271 98 -57 170 -70 405 -72 l215 -1 43 -95 c24 -52 62
-128 85 -167 23 -40 60 -105 83 -145 51 -89 208 -296 308 -407 219 -244 460
-447 748 -631 l92 -59 1 -529 c0 -291 4 -542 9 -558 20 -72 56 -116 121 -150
33 -18 68 -18 685 -15 538 2 656 6 685 18 48 19 107 79 122 122 8 24 12 127
12 311 1 263 2 275 20 273 251 -21 466 -26 654 -14 114 7 228 15 254 18 l47 5
1 -255 c0 -289 7 -342 53 -394 67 -76 40 -73 744 -73 416 0 642 4 668 11 63
17 112 56 140 112 l25 51 0 548 0 547 76 48 c300 190 618 473 834 743 164 205
318 463 413 690 65 156 144 408 162 520 2 14 11 68 20 120 10 59 19 187 23
339 l7 243 83 28 c46 15 86 30 89 34 3 3 25 -6 48 -20 63 -37 165 -55 233 -43
144 27 241 115 316 289 32 72 44 185 28 255 l-9 40 -7 -70 c-22 -208 -110
-357 -251 -425 -65 -32 -153 -32 -212 -1 -24 12 -43 25 -43 29 1 4 19 21 40
37 49 37 134 138 157 185 77 162 -47 328 -215 290 -93 -21 -153 -95 -188 -232
-19 -73 -14 -123 20 -207 l24 -59 -60 -17 c-33 -9 -62 -14 -65 -11 -3 3 -11
43 -19 88 -54 345 -160 647 -332 948 -429 749 -1205 1320 -2147 1580 -103 28
-111 29 -123 13 -17 -24 -11 -35 26 -47 69 -24 96 -93 58 -151 -24 -36 -55
-40 -184 -21 -315 45 -619 66 -946 67 -176 0 -360 -5 -410 -10 -50 -6 -145
-16 -211 -22 -66 -6 -178 -20 -250 -31 -241 -38 -261 -36 -285 36 -16 50 7 91
66 116 47 21 51 27 31 54 -10 14 -17 15 -40 7 -47 -18 -63 -13 -91 29 -38 58
-159 183 -242 251 -170 139 -447 275 -688 338 -93 25 -122 26 -157 7z m443
-1923 c277 -130 345 -492 133 -708 -87 -89 -195 -135 -315 -135 -293 0 -508
291 -421 569 44 141 152 250 296 298 25 8 77 12 140 10 88 -2 108 -6 167 -34z
m5902 -894 c82 -65 45 -203 -82 -306 -64 -52 -97 -63 -117 -37 -36 48 -55 105
-55 167 0 54 5 71 29 107 54 81 167 115 225 69z m-7328 -114 c49 -14 99 -56
123 -102 8 -15 11 -180 11 -550 0 -597 3 -569 -79 -628 -37 -26 -53 -30 -121
-33 -95 -5 -153 17 -196 74 l-29 37 -3 531 c-1 292 0 541 3 554 3 12 22 40 41
62 58 64 152 84 250 55z m1931 -21 c79 -49 87 -77 91 -302 2 -106 1 -204 -2
-218 -6 -22 -11 -24 -74 -24 -40 0 -73 5 -80 12 -9 9 -12 68 -12 204 0 188 -1
193 -22 208 -30 21 -44 20 -68 -4 -19 -19 -20 -33 -20 -509 0 -537 -2 -521 59
-521 47 0 51 12 51 177 0 145 -1 153 -20 153 -27 0 -40 29 -40 88 0 61 3 62
120 62 81 0 90 -2 101 -21 7 -15 10 -91 7 -243 -4 -237 -7 -254 -60 -303 -102
-96 -314 -64 -364 54 -20 48 -20 1059 0 1106 47 110 219 151 333 81z m-954
-12 c33 -17 55 -37 72 -66 25 -42 25 -45 25 -290 0 -264 -5 -292 -51 -317
l-21 -11 24 -16 c48 -33 48 -32 45 -307 l-2 -260 -63 0 c-94 0 -92 -5 -92 261
0 251 -1 254 -71 254 l-39 0 0 -238 c0 -284 2 -277 -92 -277 l-63 0 -3 635
c-1 349 0 641 3 648 4 11 34 13 143 10 119 -3 143 -6 185 -26z m1843 16 c14
-22 122 -1262 111 -1275 -20 -27 -128 -11 -149 21 -4 6 -10 50 -14 98 l-7 88
-48 0 -47 0 -8 -90 c-6 -80 -9 -93 -32 -110 -25 -20 -104 -28 -129 -12 -9 6 2
159 45 637 32 347 61 636 65 643 11 17 203 17 213 0z m733 -5 c17 -15 31 -72
83 -345 34 -180 63 -326 66 -324 2 2 -2 109 -7 237 -6 129 -11 275 -11 325 0
114 10 127 96 122 l59 -3 3 -642 2 -643 -26 -6 c-35 -9 -104 2 -121 19 -8 8
-40 150 -78 343 -35 181 -64 311 -64 289 -1 -22 4 -170 10 -328 11 -255 10
-290 -3 -303 -18 -18 -86 -29 -122 -20 l-26 6 0 639 c0 351 3 641 7 644 14 15
111 7 132 -10z m959 -627 c2 -505 0 -641 -10 -648 -15 -9 -109 -11 -132 -2
-14 6 -16 71 -16 635 l0 628 23 16 c15 11 39 15 77 13 l55 -3 3 -639z m817
631 c3 -7 -33 -265 -80 -575 -47 -309 -85 -564 -85 -567 0 -3 33 -5 74 -5 66
0 77 -3 90 -22 21 -30 21 -104 0 -112 -9 -3 -78 -6 -154 -6 -117 0 -141 3
-160 18 l-21 17 75 550 c42 303 76 556 76 563 0 8 -17 12 -50 12 -65 0 -90 23
-90 83 0 24 3 47 7 50 3 4 75 7 160 7 115 0 155 -3 158 -13z m835 -2 c18 -22
5 -86 -21 -107 -15 -13 -39 -18 -85 -18 l-64 0 0 -225 0 -224 73 -3 72 -3 3
-38 c2 -23 -3 -48 -13 -63 -13 -21 -23 -24 -75 -24 l-60 0 0 -220 0 -220 68 0
c79 0 99 -14 109 -74 10 -62 0 -66 -167 -66 -82 0 -155 3 -164 6 -14 6 -16 72
-16 643 0 351 3 641 7 644 3 4 77 7 163 7 128 0 160 -3 170 -15z"/>
<path d="M3515 6593 c-108 -39 -200 -115 -245 -203 -97 -190 -43 -418 128
-540 145 -104 339 -104 484 0 259 185 227 576 -59 717 -68 33 -85 38 -167 40
-68 3 -103 -1 -141 -14z m226 -39 c142 -42 240 -151 269 -302 49 -245 -188
-480 -432 -432 -248 48 -383 306 -279 527 34 72 70 114 129 155 92 63 208 83
313 52z"/>
<path d="M3572 6540 c-102 -21 -199 -96 -248 -191 -22 -43 -28 -71 -32 -139
-6 -118 19 -183 102 -266 75 -75 143 -104 246 -104 103 0 171 29 246 104 75
76 104 143 104 246 0 187 -134 335 -320 353 -30 3 -74 2 -98 -3z m118 -54 c0
-32 3 -35 39 -41 62 -10 73 -23 60 -70 -18 -68 -15 -66 -53 -50 -40 17 -104
19 -126 5 -12 -7 -12 -14 -4 -27 11 -19 20 -24 117 -68 70 -33 97 -70 97 -136
0 -59 -31 -107 -87 -134 -37 -18 -42 -24 -45 -60 l-3 -40 -47 -3 -47 -3 -3 37
c-3 36 -5 37 -58 51 -30 8 -59 18 -64 23 -6 6 -5 31 3 65 l12 55 31 -16 c44
-23 128 -29 152 -12 34 26 12 54 -64 83 -92 35 -140 86 -140 149 0 55 31 103
88 134 37 21 42 28 42 58 l0 34 50 0 50 0 0 -34z"/>
<path d="M3617 6493 c-4 -3 -7 -21 -7 -40 0 -25 -4 -33 -17 -33 -31 0 -83 -39
-99 -74 -35 -72 13 -147 116 -181 66 -22 90 -41 90 -74 0 -46 -29 -64 -97 -58
-32 3 -70 8 -84 12 -23 6 -27 3 -32 -22 -7 -36 11 -51 75 -59 47 -6 48 -8 48
-40 0 -30 3 -34 25 -34 22 0 25 4 25 35 0 25 5 37 18 41 88 27 126 72 119 142
-6 56 -41 93 -116 123 -79 32 -101 48 -101 74 0 45 26 58 107 52 71 -5 73 -5
79 19 8 32 2 37 -54 49 -43 9 -47 13 -50 43 -2 23 -8 32 -21 32 -10 0 -21 -3
-24 -7z"/>
<path d="M9601 5643 c-52 -26 -73 -67 -68 -136 2 -36 9 -64 20 -74 15 -15 18
-15 41 0 64 43 106 109 106 170 0 58 -35 72 -99 40z"/>
<path d="M2282 5444 l-22 -15 0 -490 c0 -319 4 -497 10 -510 7 -13 21 -19 45
-19 24 0 38 6 45 19 6 13 10 191 10 510 l0 490 -22 15 c-12 9 -27 16 -33 16
-6 0 -21 -7 -33 -16z"/>
<path d="M3200 5190 l0 -250 39 0 c68 0 71 12 71 256 0 238 -2 244 -73 244
l-37 0 0 -250z"/>
<path d="M5087 5003 c-23 -415 -25 -373 23 -373 31 0 40 4 40 18 1 62 -34 658
-40 665 -3 4 -14 -136 -23 -310z"/>
<path d="M5286 7834 c-4 -15 -3 -30 1 -33 4 -3 51 -4 103 -1 52 3 88 8 80 11
-29 12 -156 49 -167 49 -6 0 -14 -12 -17 -26z"/>
<path d="M6651 7764 c-14 -32 -13 -34 37 -41 33 -4 42 -2 51 15 14 27 -9 52
-48 52 -20 0 -31 -7 -40 -26z"/>
<path d="M4567 7762 c-14 -16 -15 -21 -3 -37 10 -14 21 -17 51 -12 47 8 48 9
34 41 -15 31 -57 36 -82 8z"/>
<path d="M5255 1831 c-3 -7 -5 -102 -3 -212 3 -223 6 -230 63 -151 30 44 30
44 33 203 l3 159 -23 0 c-13 0 -33 3 -44 6 -12 3 -25 1 -29 -5z"/>
<path d="M6017 1833 c-11 -10 -8 -237 3 -291 10 -46 60 -122 81 -122 5 0 9 88
9 210 l0 210 -43 0 c-24 0 -47 -3 -50 -7z"/>
</g>
</svg>
